<svg height="512pt" viewBox="-56 0 511 512" width="512pt" xmlns="http://www.w3.org/2000/svg"><path d="m399.6875 404.480469c.015625 21.613281-8.566406 42.347656-23.851562 57.632812-15.285157 15.285157-36.015626 23.867188-57.632813 23.851563l-31.328125 17.355468h-173.558594l-31.328125-17.355468c-43.640625-.011719-79.527343-34.390625-81.410156-77.988282-1.882813-43.601562 30.90625-80.949218 74.382813-84.722656l43.648437-3.816406 26.121094-2.257812h110.730469l24.820312 2.167968 44.953125 3.90625c42.121094 3.683594 74.441406 38.945313 74.453125 81.226563zm0 0" fill="#b49aca"/><path d="m280.28125 319.347656-45.472656 62.484375h-69.425782l-46.773437-62.394531 26.121094-2.257812h110.730469zm0 0" fill="#3d324c"/><path d="m304.230469 138.847656s17.355469-52.066406 8.679687-69.425781c-6.640625-10.105469-15.558594-18.515625-26.035156-24.558594l-52.066406 7.203125 17.355468 86.78125 26.035157 26.035156zm0 0" fill="#3d324c"/><path d="m286.789062 145.183594c5.988282-4.773438 26.121094-18.398438 26.121094 19.089844 0 35.667968-22.738281 42.4375-31.414062 43.738281h-162.800782c-8.675781-1.300781-31.414062-8.070313-31.414062-43.738281 0-37.488282 20.132812-23.863282 26.121094-19.089844zm0 0" fill="#7d6599"/><path d="m347.621094 442.578125v34.710937l-2.996094 4.292969c-8.503906 2.90625-17.433594 4.390625-26.421875 4.382813l-31.328125 17.355468h-173.558594l-31.328125-17.355468c-8.988281.007812-17.917969-1.476563-26.421875-4.382813l-2.996094-4.292969v-34.710937c0-9.585937 7.769532-17.359375 17.355469-17.359375h260.339844c9.585937 0 17.355469 7.773438 17.355469 17.359375zm0 0" fill="#7d6599"/><path d="m330.265625 407.863281v69.425781c0 14.378907-11.65625 26.03125-26.035156 26.03125h-208.269531c-14.378907 0-26.035157-11.652343-26.035157-26.03125v-69.425781" fill="#b49aca"/><path d="m244.613281 269.882812c1.714844 16.144532 5.355469 32.023438 10.847657 47.296876 1.542968 4.296874 3.335937 8.5 5.382812 12.582031l-60.746094 52.070312-60.746094-52.070312c2.042969-4.082031 3.839844-8.285157 5.378907-12.582031 5.515625-15.203126 9.132812-31.03125 10.761719-47.121094" fill="#7d6599"/><path d="m200.097656 512c-4.792968 0-8.679687-3.886719-8.679687-8.679688v-121.488281c0-4.792969 3.886719-8.679687 8.679687-8.679687 4.792969 0 8.675782 3.886718 8.675782 8.679687v121.488281c0 4.792969-3.882813 8.679688-8.675782 8.679688zm0 0" fill="#7d6599"/><path d="m200.097656 381.832031-34.714844 26.03125-86.777343-86.777343 34.710937-17.355469 26.035156 26.03125zm0 0" fill="#5d4c72"/><path d="m260.84375 329.761719 26.03125-26.03125 34.710938 17.355469-86.777344 86.777343-34.710938-26.03125zm0 0" fill="#5d4c72"/><path d="m267.351562 66.992188c12.234376 14.058593 19.523438 35.753906 19.523438 68.558593 0 3.296875 0 6.507813-.085938 9.632813.273438 21.019531-1.96875 41.996094-6.683593 62.480468-2.308594 9.167969-5.503907 18.089844-9.542969 26.640626-12.324219 26.035156-33.757812 52.066406-70.464844 52.066406-36.882812 0-58.316406-25.859375-70.640625-52.066406-4.011719-8.550782-7.179687-17.472657-9.457031-26.640626-4.675781-20.492187-6.886719-41.464843-6.597656-62.480468-.085938-2.082032-.085938-4.167969-.085938-6.335938v-95.457031zm0 0" fill="#b49aca"/><path d="m95.960938 138.847656c-4.910157-19.910156-7.816407-40.257812-8.679688-60.746094 0-26.035156 8.679688-60.746093 60.746094-60.746093 52.070312 0 121.492187 8.679687 138.847656-17.355469 0 0 17.355469 69.421875-34.710938 69.421875-52.066406 0-138.847656-17.355469-138.847656 78.105469zm0 0" fill="#5d4c72"/></svg>